<svg width="84" height="96" viewBox="0 0 84 96" fill="none" xmlns="http://www.w3.org/2000/svg">
<path d="M78.089 40.6012C77.0397 38.9264 76.5127 36.9764 76.5127 35C76.5127 15.67 60.9419 0 41.7342 0C22.5266 0 6.9557 15.67 6.9557 35C6.9557 37.406 6.35827 39.7884 5.14565 41.8664C1.86531 47.4879 0 53.4018 0 58.6888C0 75.4753 11.7978 79.5851 42 79.5851C73.618 79.5851 84 75.4753 84 58.6888C84 53.0035 81.843 46.5932 78.089 40.6012Z" fill="black"/>
<path d="M53.929 85.3513C51.803 89.8752 47.2641 93.0001 42.0081 93.0001C36.7387 93.0001 32.1901 89.8593 30.071 85.3169" stroke="black" stroke-width="5" stroke-linecap="round"/>
</svg>
