<svg width="84" height="96" viewBox="0 0 84 96" fill="none" xmlns="http://www.w3.org/2000/svg">
<mask id="path-1-inside-1_7_87" fill="white">
<path fill-rule="evenodd" clip-rule="evenodd" d="M78.089 40.6012C77.0397 38.9264 76.5127 36.9764 76.5127 35V35C76.5127 15.67 60.9419 0 41.7342 0C22.5266 0 6.9557 15.67 6.9557 35V35C6.9557 37.406 6.35827 39.7884 5.14565 41.8664C1.86531 47.4879 0 53.4018 0 58.6888C0 75.4753 11.7978 79.5851 42 79.5851C73.618 79.5851 84 75.4753 84 58.6888C84 53.0035 81.843 46.5932 78.089 40.6012Z"/>
</mask>
<path d="M78.089 40.6012L82.3261 37.9466L78.089 40.6012ZM41.7342 5C58.1506 5 71.5127 18.4015 71.5127 35H81.5127C81.5127 12.9386 63.7332 -5 41.7342 -5V5ZM11.9557 35C11.9557 18.4015 25.3179 5 41.7342 5V-5C19.7353 -5 1.9557 12.9386 1.9557 35H11.9557ZM5 58.6888C5 54.5133 6.50046 49.4653 9.46416 44.3864L0.827135 39.3464C-2.76985 45.5105 -5 52.2903 -5 58.6888H5ZM42 74.5851C26.8189 74.5851 17.3777 73.4988 11.7817 70.8978C9.17296 69.6852 7.62279 68.2364 6.65048 66.5444C5.64209 64.7896 5 62.3264 5 58.6888H-5C-5 63.4445 -4.16737 67.7899 -2.01986 71.5269C0.163732 75.3267 3.45063 78.0528 7.56662 79.966C15.4201 83.6164 26.9789 84.5851 42 84.5851V74.5851ZM79 58.6888C79 62.4161 78.4161 64.9161 77.4739 66.6791C76.5854 68.3419 75.1706 69.7416 72.7027 70.9197C67.3201 73.4892 57.934 74.5851 42 74.5851V84.5851C57.684 84.5851 69.2979 83.6261 77.0108 79.9441C81.0907 77.9964 84.2475 75.2212 86.2936 71.3922C88.2862 67.6634 89 63.3547 89 58.6888H79ZM73.8519 43.2558C77.2579 48.6922 79 54.1904 79 58.6888H89C89 51.8166 86.4282 44.4942 82.3261 37.9466L73.8519 43.2558ZM1.9557 35C1.9557 36.5869 1.56109 38.0886 0.827135 39.3464L9.46416 44.3864C11.1554 41.4881 11.9557 38.225 11.9557 35H1.9557ZM71.5127 35C71.5127 37.8577 72.2744 40.7378 73.8519 43.2558L82.3261 37.9466C81.8051 37.1149 81.5127 36.0951 81.5127 35H71.5127Z" fill="black" mask="url(#path-1-inside-1_7_87)"/>
<path d="M53.929 85.3513C51.803 89.8752 47.2641 93.0001 42.0081 93.0001C36.7387 93.0001 32.1901 89.8593 30.071 85.3169" stroke="black" stroke-width="5" stroke-linecap="round"/>
<circle cx="63" cy="16" r="13.5" fill="#EB5757" stroke="black" stroke-width="5"/>
</svg>
