<svg width="84" height="96" viewBox="0 0 84 96" fill="none" xmlns="http://www.w3.org/2000/svg">
<path d="M41.7342 2.5C59.5462 2.5 74.0127 17.0358 74.0127 35C74.0127 37.4171 74.657 39.8321 75.9705 41.9285C79.5505 47.6427 81.5 53.5969 81.5 58.6888C81.5 62.6508 80.8836 65.6029 79.6789 67.8574C78.5009 70.0617 76.6506 71.8053 73.7797 73.1758C67.8145 76.0234 57.8715 77.0851 42 77.0851C26.8589 77.0851 16.8883 76.0282 10.7279 73.1648C7.74238 71.7771 5.75802 70.009 4.48289 67.79C3.18973 65.5397 2.5 62.6059 2.5 58.6888C2.5 53.9576 4.18289 48.4766 7.3049 43.1264C8.75686 40.6382 9.4557 37.8155 9.4557 35C9.4557 17.0358 23.9222 2.5 41.7342 2.5Z" stroke="black" stroke-width="5"/>
<path d="M53.929 85.3513C51.803 89.8752 47.2641 93.0001 42.0081 93.0001C36.7387 93.0001 32.1901 89.8593 30.071 85.3169" stroke="black" stroke-width="5" stroke-linecap="round"/>
</svg>
