<svg width="106" height="99" viewBox="0 0 106 99" fill="none" xmlns="http://www.w3.org/2000/svg">
<path d="M50 29H29L29 0.5H50V29Z" fill="black"/>
<path d="M20 0.5H24L24 29H0V20.5C0 9.45431 8.95431 0.5 20 0.5Z" fill="black"/>
<path d="M81 29H106V20.5C106 9.4543 97.0457 0.5 86 0.5H81V29Z" fill="black"/>
<path d="M76 0.5H55V29H76V0.5Z" fill="black"/>
<path fill-rule="evenodd" clip-rule="evenodd" d="M106 34H0V78.5C0 89.5457 8.9543 98.5 20 98.5H86C97.0457 98.5 106 89.5457 106 78.5V34ZM41 51.2867V69.9161C41 73.7481 45.1334 76.1558 48.4666 74.2654L64.5087 65.1673C67.8474 63.2737 67.8958 58.4801 64.596 56.5195L48.554 46.9882C45.221 45.0079 41 47.4099 41 51.2867Z" fill="black"/>
</svg>
