<svg width="88" height="113" viewBox="0 0 88 113" fill="none" xmlns="http://www.w3.org/2000/svg">
<path d="M52.4834 38.5512C51.6274 46.3252 48.9921 54.3564 46.0243 62.1059C45.659 63.0572 45.183 64.9271 46.5124 66.3752C47.8227 67.8026 49.6889 67.5042 50.5714 67.2635C52.6749 66.6898 55.2603 64.8899 57.7345 62.2838C62.1385 57.6449 66.8424 49.7763 68.703 38.6181C69.7291 39.913 70.8869 41.5014 72.1122 43.3529C75.0071 47.7274 78.1272 53.3409 80.5888 59.4835C85.5782 71.9338 87.5665 85.7699 80.7688 96.1284C77.7417 100.741 65.0702 110.5 41.376 110.5C30.8652 110.5 21.8412 108.701 15.1668 104.57C8.61167 100.514 4.09633 94.0737 2.74231 84.1848C1.99785 78.7478 3.05086 72.7153 4.77379 67.1393C7.31272 58.9225 12.7305 52.2305 18.5079 45.0941L18.7052 44.8504C24.4426 37.7628 30.5106 30.2079 33.1172 20.6878C34.4528 15.8094 35.0562 10.2442 35.2105 3.6883C39.8979 6.07858 44.6777 10.9273 48.4098 16.99C52.4077 23.4846 53.3356 30.8122 52.4834 38.5512Z" stroke="black" stroke-width="5" stroke-miterlimit="16"/>
</svg>
