<svg width="100" height="100" viewBox="0 0 100 100" fill="none" xmlns="http://www.w3.org/2000/svg">
<path fill-rule="evenodd" clip-rule="evenodd" d="M42.618 2.76393C43.465 1.07001 45.1963 0 47.0902 0H52.9098C54.8037 0 56.535 1.07001 57.382 2.76393L60.278 8.55598C61.3142 10.6285 63.1821 12.1515 65.3222 13.0397C67.4637 13.9284 69.837 14.1606 72.0366 13.4274L78.1811 11.3792C79.9778 10.7803 81.9586 11.2479 83.2978 12.5871L87.4129 16.7022C88.7521 18.0414 89.2197 20.0222 88.6208 21.8189L86.5726 27.9633C85.8394 30.1629 86.0716 32.5363 86.9603 34.6777C87.8485 36.8179 89.3715 38.6857 91.444 39.722L97.2361 42.618C98.93 43.465 100 45.1963 100 47.0902V52.9098C100 54.8037 98.93 56.535 97.2361 57.382L91.444 60.278C89.3715 61.3143 87.8485 63.1821 86.9603 65.3222C86.0716 67.4637 85.8394 69.837 86.5726 72.0366L88.6208 78.1811C89.2197 79.9778 88.7521 81.9586 87.4129 83.2978L83.2978 87.4129C81.9586 88.7521 79.9778 89.2197 78.1811 88.6208L72.0366 86.5726C69.837 85.8394 67.4637 86.0715 65.3223 86.9603C63.1821 87.8485 61.3142 89.3715 60.278 91.444L57.382 97.2361C56.535 98.93 54.8037 100 52.9098 100H47.0902C45.1963 100 43.465 98.93 42.618 97.2361L39.722 91.444C38.6857 89.3715 36.8179 87.8485 34.6778 86.9603C32.5363 86.0716 30.163 85.8394 27.9634 86.5726L21.8189 88.6208C20.0222 89.2197 18.0414 88.7521 16.7022 87.4129L12.5871 83.2978C11.2479 81.9586 10.7803 79.9778 11.3792 78.1811L13.4274 72.0367C14.1606 69.8371 13.9284 67.4637 13.0397 65.3223C12.1515 63.1821 10.6285 61.3143 8.55596 60.278L2.76393 57.382C1.07001 56.535 0 54.8037 0 52.9098V47.0902C0 45.1963 1.07001 43.465 2.76393 42.618L8.55596 39.722C10.6285 38.6858 12.1515 36.8179 13.0397 34.6777C13.9284 32.5363 14.1606 30.1629 13.4274 27.9633L11.3792 21.8189C10.7803 20.0222 11.2479 18.0414 12.5871 16.7022L16.7022 12.5871C18.0414 11.2479 20.0222 10.7803 21.8189 11.3792L27.9634 13.4274C30.163 14.1606 32.5363 13.9284 34.6777 13.0397C36.8179 12.1515 38.6857 10.6285 39.722 8.55597L42.618 2.76393ZM50 70C61.0457 70 70 61.0457 70 50C70 38.9543 61.0457 30 50 30C38.9543 30 30 38.9543 30 50C30 61.0457 38.9543 70 50 70Z" fill="black"/>
</svg>
