<svg width="31" height="31" viewBox="0 0 31 31" fill="none" xmlns="http://www.w3.org/2000/svg">
<mask id="path-1-inside-1_20_46" fill="white">
<path fill-rule="evenodd" clip-rule="evenodd" d="M22.874 6H27C29.2091 6 31 7.79086 31 10V23C31 25.2091 29.2091 27 27 27H5C2.79086 27 1 25.2091 1 23V10C1 7.79086 2.79086 6 5 6H9.12602C9.57006 4.27477 11.1362 3 13 3H19C20.8638 3 22.4299 4.27477 22.874 6Z"/>
</mask>
<path d="M22.874 6L20.9371 6.49852L21.3236 8H22.874V6ZM9.12602 6V8H10.6764L11.0629 6.49852L9.12602 6ZM22.874 8H27V4H22.874V8ZM27 8C28.1046 8 29 8.89543 29 10H33C33 6.68629 30.3137 4 27 4V8ZM29 10V23H33V10H29ZM29 23C29 24.1046 28.1046 25 27 25V29C30.3137 29 33 26.3137 33 23H29ZM27 25H5V29H27V25ZM5 25C3.89543 25 3 24.1046 3 23H-1C-1 26.3137 1.68629 29 5 29V25ZM3 23V10H-1V23H3ZM3 10C3 8.89543 3.89543 8 5 8V4C1.68629 4 -1 6.68629 -1 10H3ZM5 8H9.12602V4H5V8ZM11.0629 6.49852C11.285 5.63547 12.0708 5 13 5V1C10.2015 1 7.8551 2.91407 7.18914 5.50148L11.0629 6.49852ZM13 5H19V1H13V5ZM19 5C19.9292 5 20.715 5.63547 20.9371 6.49852L24.8109 5.50148C24.1449 2.91407 21.7985 1 19 1V5Z" fill="black" mask="url(#path-1-inside-1_20_46)"/>
<circle cx="16" cy="16" r="5" stroke="black" stroke-width="2"/>
<line x1="30" y1="1.41421" x2="1.41421" y2="30" stroke="black" stroke-width="2" stroke-linecap="round"/>
</svg>
