<svg width="18" height="17" viewBox="0 0 18 17" fill="none" xmlns="http://www.w3.org/2000/svg">
<path fill-rule="evenodd" clip-rule="evenodd" d="M13.4543 16.9747C13.3742 16.9598 13.2947 16.9376 13.217 16.9077L9 15.3245L4.7829 16.9113C4.66004 16.9573 4.53284 16.985 4.40546 16.9954C4.36719 16.9984 4.32886 17 4.29065 17H4.28327C3.52112 17 2.90216 16.3903 2.90216 15.6393C2.90216 15.5634 2.90766 15.489 2.92047 15.4167L3.19049 11.1681L0.308656 7.66846C0.0111099 7.30664 -0.0788559 6.81982 0.0717789 6.37842C0.220522 5.93689 0.591554 5.60217 1.05072 5.4917L5.40924 4.4386L7.83002 0.636963C8.08344 0.240601 8.52423 0 9 0C9.47571 0 9.91834 0.240601 10.17 0.636963L12.5908 4.44043L16.9493 5.49353C17.4084 5.60388 17.7777 5.93872 17.9282 6.38025C18.0789 6.82166 17.9888 7.30847 17.6913 7.67041L14.8077 11.1681L15.0869 15.5542C15.1162 16.0156 14.905 16.4589 14.5267 16.734C14.286 16.9077 13.9995 16.9982 13.7093 16.9982C13.6244 16.9982 13.5389 16.9905 13.4543 16.9747ZM9 13.3245C9.23816 13.3245 9.47638 13.3669 9.70294 13.452L12.739 14.5919C12.8748 14.6429 13.0181 14.5367 13.0089 14.392L12.8117 11.295C12.7795 10.7881 12.9413 10.2878 13.2645 9.89575L15.2852 7.44482C15.3792 7.33081 15.3214 7.15784 15.1779 7.12317L12.121 6.38452C11.6179 6.26294 11.1815 5.95105 10.9035 5.5144L9.16858 2.78845C9.12934 2.72668 9.06464 2.6958 9 2.6958V13.3245Z" fill="black"/>
</svg>
