<svg width="18" height="17" viewBox="0 0 18 17" fill="none" xmlns="http://www.w3.org/2000/svg">
<path fill-rule="evenodd" clip-rule="evenodd" d="M14.5266 16.734C14.286 16.9077 13.9995 16.9981 13.7093 16.9981C13.6244 16.9981 13.5389 16.9905 13.4543 16.9748C13.3742 16.9598 13.2948 16.9376 13.2171 16.9077L8.99998 15.3244L4.7829 16.9113C4.66001 16.9573 4.53285 16.985 4.40547 16.9954C4.36716 16.9985 4.32886 17 4.29066 17H4.28329C3.5211 17 2.90214 16.3902 2.90214 15.6393C2.90214 15.5633 2.90763 15.489 2.92049 15.4167L3.1905 11.168L0.308679 7.6685C0.011118 7.30665 -0.0788487 6.81986 0.0717611 6.37839C0.220542 5.93692 0.591551 5.60215 1.0507 5.49173L5.40923 4.43862L7.83002 0.636976C8.08346 0.240613 8.52426 0 8.99998 0C9.4757 0 9.91833 0.240613 10.17 0.636976L12.5908 4.44048L16.9493 5.49359C17.4085 5.6039 17.7776 5.93866 17.9283 6.38024C18.0789 6.82171 17.9888 7.30851 17.6913 7.67036L14.8077 11.168L15.0868 15.5542C15.1162 16.0156 14.905 16.4589 14.5266 16.734Z" fill="black"/>
</svg>
