<svg width="84" height="96" viewBox="0 0 84 96" fill="none" xmlns="http://www.w3.org/2000/svg">
<path d="M53.929 85.3513C51.803 89.8752 47.2641 93.0001 42.0081 93.0001C36.7387 93.0001 32.1901 89.8593 30.071 85.3169" stroke="black" stroke-width="5" stroke-linecap="round"/>
<path d="M76.5127 35C76.5127 36.9764 77.0397 38.9264 78.089 40.6012C81.843 46.5932 84 53.0035 84 58.6888C84 75.4753 73.618 79.5851 42 79.5851C11.7978 79.5851 0 75.4753 0 58.6888C0 53.4018 1.86531 47.4879 5.14565 41.8664C6.35827 39.7884 6.9557 37.406 6.9557 35C6.9557 15.67 22.5266 0 41.7342 0C46.2444 0 50.5542 0.864008 54.5088 2.43653C49.9986 5.26604 47 10.2828 47 16C47 24.8366 54.1634 32 63 32C67.993 32 72.4518 29.713 75.386 26.1293C76.1213 28.9623 76.5127 31.9351 76.5127 35Z" fill="black"/>
<circle cx="63" cy="16" r="11" fill="#EB5757"/>
</svg>
