<svg width="112" height="103" viewBox="0 0 112 103" fill="none" xmlns="http://www.w3.org/2000/svg">
<path d="M3 29.5H109M31 4.5V29M56 4.5V29M81 4.5V29M3 22.5C3 11.4543 11.9543 2.5 23 2.5H89C100.046 2.5 109 11.4543 109 22.5V80.5C109 91.5457 100.046 100.5 89 100.5H23C11.9543 100.5 3 91.5457 3 80.5V22.5ZM44 71.9161V53.2867C44 49.4099 48.221 47.0079 51.554 48.9882L67.596 58.5195C70.8958 60.4801 70.8474 65.2737 67.5087 67.1673L51.4666 76.2654C48.1334 78.1557 44 75.7481 44 71.9161Z" stroke="black" stroke-width="5"/>
</svg>
