<svg width="88" height="113" viewBox="0 0 88 113" fill="none" xmlns="http://www.w3.org/2000/svg">
<path d="M48.3589 63C45.8589 69.5 64.8589 60 66.8589 33C73.327 38 97.8589 74.6429 82.8589 97.5C79.2495 103 65.6671 113 41.376 113C19.8938 113 3.16244 105.682 0.26542 84.524C-0.549399 78.5731 0.611994 72.14 2.38522 66.4012C7.85641 48.6947 25.812 37.9023 30.7059 20.0276C32.1987 14.5752 32.7519 8.10467 32.7519 0L34.0293 0.455764C40.0855 2.6165 46.1155 8.49397 50.5388 15.6795C59.2882 29.893 54.3283 47.4134 48.3589 63Z" fill="black"/>
</svg>
