<svg width="106" height="106" viewBox="0 0 106 106" fill="none" xmlns="http://www.w3.org/2000/svg">
<path fill-rule="evenodd" clip-rule="evenodd" d="M45.618 5.76393C46.465 4.07001 48.1963 3 50.0902 3H55.9098C57.8037 3 59.535 4.07001 60.382 5.76393L63.278 11.556C64.3142 13.6285 66.1821 15.1515 68.3222 16.0397C70.4637 16.9284 72.837 17.1606 75.0366 16.4274L81.1811 14.3792C82.9778 13.7803 84.9586 14.2479 86.2978 15.5871L90.4129 19.7022C91.7521 21.0414 92.2197 23.0222 91.6208 24.8189L89.5726 30.9633C88.8394 33.1629 89.0716 35.5363 89.9603 37.6777C90.8485 39.8179 92.3715 41.6857 94.444 42.722L100.236 45.618C101.93 46.465 103 48.1963 103 50.0902V55.9098C103 57.8037 101.93 59.535 100.236 60.382L94.444 63.278C92.3715 64.3143 90.8485 66.1821 89.9603 68.3222C89.0716 70.4637 88.8394 72.837 89.5726 75.0366L91.6208 81.1811C92.2197 82.9778 91.7521 84.9586 90.4129 86.2978L86.2978 90.4129C84.9586 91.7521 82.9778 92.2197 81.1811 91.6208L75.0366 89.5726C72.837 88.8394 70.4637 89.0715 68.3223 89.9603C66.1821 90.8485 64.3142 92.3715 63.278 94.444L60.382 100.236C59.535 101.93 57.8037 103 55.9098 103H50.0902C48.1963 103 46.465 101.93 45.618 100.236L42.722 94.444C41.6857 92.3715 39.8179 90.8485 37.6778 89.9603C35.5363 89.0716 33.163 88.8394 30.9634 89.5726L24.8189 91.6208C23.0222 92.2197 21.0414 91.7521 19.7022 90.4129L15.5871 86.2978C14.2479 84.9586 13.7803 82.9778 14.3792 81.1811L16.4274 75.0367C17.1606 72.8371 16.9284 70.4637 16.0397 68.3223C15.1515 66.1821 13.6285 64.3143 11.556 63.278L5.76393 60.382C4.07001 59.535 3 57.8037 3 55.9098V50.0902C3 48.1963 4.07001 46.465 5.76393 45.618L11.556 42.722C13.6285 41.6858 15.1515 39.8179 16.0397 37.6777C16.9284 35.5363 17.1606 33.1629 16.4274 30.9633L14.3792 24.8189C13.7803 23.0222 14.2479 21.0414 15.5871 19.7022L19.7022 15.5871C21.0414 14.2479 23.0222 13.7803 24.8189 14.3792L30.9634 16.4274C33.163 17.1606 35.5363 16.9284 37.6777 16.0397C39.8179 15.1515 41.6857 13.6285 42.722 11.556L45.618 5.76393ZM53 73C64.0457 73 73 64.0457 73 53C73 41.9543 64.0457 33 53 33C41.9543 33 33 41.9543 33 53C33 64.0457 41.9543 73 53 73Z" stroke="black" stroke-width="5"/>
</svg>
