<svg width="106" height="113" viewBox="0 0 106 113" fill="none" xmlns="http://www.w3.org/2000/svg">
<path d="M59.4723 2.49537C55.7394 -0.67404 50.2605 -0.674033 46.5277 2.49538L7.05538 36.0096C2.5798 39.8096 0 45.3843 0 51.2555V93C0 104.046 8.9543 113 20 113H29C31.7614 113 34 110.761 34 108V91C34 85.4772 38.4772 81 44 81H62C67.5229 81 72 85.4772 72 91V108C72 110.761 74.2386 113 77 113H86C97.0457 113 106 104.046 106 93V51.2555C106 45.3843 103.42 39.8096 98.9446 36.0096L59.4723 2.49537Z" fill="black"/>
</svg>
