<svg width="106" height="113" viewBox="0 0 106 113" fill="none" xmlns="http://www.w3.org/2000/svg">
<path d="M48.1458 4.40111C50.9454 2.02405 55.0546 2.02405 57.8542 4.40111L97.3265 37.9153C101.243 41.2403 103.5 46.1182 103.5 51.2555V93C103.5 102.665 95.665 110.5 86 110.5H77C75.6193 110.5 74.5 109.381 74.5 108V91C74.5 84.0965 68.9036 78.5 62 78.5H44C37.0964 78.5 31.5 84.0965 31.5 91V108C31.5 109.381 30.3807 110.5 29 110.5H20C10.335 110.5 2.5 102.665 2.5 93V51.2555C2.5 46.1182 4.75733 41.2403 8.67346 37.9153L48.1458 4.40111Z" stroke="black" stroke-width="5"/>
</svg>
