<svg width="18" height="17" viewBox="0 0 18 17" fill="none" xmlns="http://www.w3.org/2000/svg">
<path fill-rule="evenodd" clip-rule="evenodd" d="M13.2171 16.9077C13.2948 16.9376 13.3742 16.9598 13.4543 16.9748C13.5389 16.9905 13.6244 16.9981 13.7093 16.9981C13.9995 16.9981 14.286 16.9077 14.5266 16.734C14.905 16.4589 15.1162 16.0156 15.0868 15.5542L14.8077 11.168L17.6913 7.67036C17.9888 7.30851 18.0789 6.82171 17.9283 6.38024C17.7776 5.93866 17.4085 5.6039 16.9493 5.49359L12.5908 4.44048L10.17 0.636976C9.91833 0.240613 9.4757 0 8.99998 0C8.52426 0 8.08346 0.240613 7.83002 0.636976L5.40924 4.43862L1.0507 5.49173C0.59155 5.60215 0.220542 5.93691 0.071761 6.37839C-0.0788488 6.81986 0.011118 7.30665 0.308679 7.6685L3.1905 11.168L2.92049 15.4167C2.90763 15.489 2.90214 15.5633 2.90214 15.6393C2.90214 16.3902 3.5211 17 4.28329 17H4.29066C4.32886 17 4.36716 16.9985 4.40547 16.9954C4.53285 16.985 4.66001 16.9573 4.7829 16.9113L8.99998 15.3244L13.2171 16.9077ZM4.98944 14.3952C4.98023 14.5401 5.1236 14.6462 5.25948 14.5951L8.29561 13.4526C8.74916 13.2819 9.24926 13.2817 9.70295 13.4521L12.7389 14.5919C12.8748 14.6429 13.018 14.5368 13.0088 14.3919L12.8117 11.2951C12.7795 10.7881 12.9413 10.2878 13.2645 9.8958L15.2852 7.44476C15.3792 7.3308 15.3214 7.15782 15.1779 7.12313L12.1211 6.38454C11.6179 6.26296 11.1815 5.95104 10.9035 5.51435L9.16856 2.7884C9.08998 2.66493 8.90975 2.66491 8.83114 2.78836L7.09625 5.51287C6.81829 5.94937 6.38197 6.26115 5.87896 6.38268L2.82127 7.12148C2.67775 7.15616 2.61999 7.32905 2.71385 7.44302L4.73439 9.89667C5.05705 10.2885 5.21866 10.7883 5.18647 11.2949L4.98944 14.3952Z" fill="black"/>
</svg>
