<svg width="80" height="109" viewBox="0 0 80 109" fill="none" xmlns="http://www.w3.org/2000/svg">
<path d="M3 89.3311C3 81.8512 8.86731 80.7539 16.3611 78.913L25.7241 77.7592C35.2055 76.5908 44.7945 76.5908 54.2759 77.7592C60.5077 78.5272 66.9889 79.0029 72.6061 81.8088C75.3815 83.1952 77 85.2317 77 89.3311C77 96.8109 67.9347 106 60.5556 106H19.4444C12.0653 106 3 96.8109 3 89.3311Z" stroke="black" stroke-width="5"/>
<path d="M69 35C69 52.6731 56.0163 67 40 67C23.9837 67 11 52.6731 11 35C11 17.3269 23.9837 3 40 3C56.0163 3 69 17.3269 69 35Z" stroke="black" stroke-width="5"/>
</svg>
