<svg width="76" height="105" viewBox="0 0 76 105" fill="none" xmlns="http://www.w3.org/2000/svg">
<path d="M1 87.3311C1 79.8512 6.86731 78.7539 14.3611 76.913L23.7241 75.7592C33.2055 74.5908 42.7945 74.5908 52.2759 75.7592C58.5077 76.5272 64.9889 77.0029 70.6061 79.8088C73.3815 81.1952 75 83.2317 75 87.3311C75 94.8109 65.9347 104 58.5556 104H17.4444C10.0653 104 1 94.8109 1 87.3311Z" fill="black"/>
<path d="M67 33C67 50.6731 54.0163 65 38 65C21.9837 65 9 50.6731 9 33C9 15.3269 21.9837 1 38 1C54.0163 1 67 15.3269 67 33Z" fill="black"/>
<path d="M1 87.3311C1 79.8512 6.86731 78.7539 14.3611 76.913L23.7241 75.7592C33.2055 74.5908 42.7945 74.5908 52.2759 75.7592C58.5077 76.5272 64.9889 77.0029 70.6061 79.8088C73.3815 81.1952 75 83.2317 75 87.3311C75 94.8109 65.9347 104 58.5556 104H17.4444C10.0653 104 1 94.8109 1 87.3311Z" stroke="black"/>
<path d="M67 33C67 50.6731 54.0163 65 38 65C21.9837 65 9 50.6731 9 33C9 15.3269 21.9837 1 38 1C54.0163 1 67 15.3269 67 33Z" stroke="black"/>
</svg>
