<svg width="32" height="31" viewBox="0 0 32 31" fill="none" xmlns="http://www.w3.org/2000/svg">
<path d="M30 1.41418L1.41421 30M22.874 5.99997H27C29.2091 5.99997 31 7.79083 31 9.99997V23C31 25.2091 29.2091 27 27 27H5C2.79086 27 1 25.2091 1 23V9.99997C1 7.79083 2.79086 5.99997 5 5.99997H9.12602C9.57006 4.27474 11.1362 2.99997 13 2.99997H19C20.8638 2.99997 22.4299 4.27474 22.874 5.99997ZM22 16C22 19.3137 19.3137 22 16 22C12.6863 22 10 19.3137 10 16C10 12.6863 12.6863 9.99997 16 9.99997C19.3137 9.99997 22 12.6863 22 16Z" stroke="white" stroke-opacity="0.4" stroke-width="2" stroke-linecap="round"/>
</svg>
